<?xml version="1.0" encoding="UTF-8" standalone="no"?>
<!-- Created with Inkscape (http://www.inkscape.org/) -->

<svg
   width="256"
   height="256"
   viewBox="0 0 67.733333 67.733335"
   version="1.1"
   id="svg5"
   sodipodi:docname="fb_icon.svg"
   inkscape:version="1.1.1 (3bf5ae0, 2021-09-20)"
   xmlns:inkscape="http://www.inkscape.org/namespaces/inkscape"
   xmlns:sodipodi="http://sodipodi.sourceforge.net/DTD/sodipodi-0.dtd"
   xmlns="http://www.w3.org/2000/svg"
   xmlns:svg="http://www.w3.org/2000/svg">
  <sodipodi:namedview
     id="namedview7"
     pagecolor="#505050"
     bordercolor="#eeeeee"
     borderopacity="1"
     inkscape:pageshadow="0"
     inkscape:pageopacity="0"
     inkscape:pagecheckerboard="0"
     inkscape:document-units="mm"
     showgrid="false"
     units="px"
     width="256px"
     showguides="true"
     inkscape:guide-bbox="true"
     inkscape:zoom="2.95"
     inkscape:cx="108.81356"
     inkscape:cy="139.15254"
     inkscape:window-width="1920"
     inkscape:window-height="948"
     inkscape:window-x="0"
     inkscape:window-y="27"
     inkscape:window-maximized="1"
     inkscape:current-layer="layer1">
    <sodipodi:guide
       position="-37.37072,9.3586313"
       orientation="0,-1"
       id="guide838" />
    <sodipodi:guide
       position="82.327575,56.567514"
       orientation="0,-1"
       id="guide840" />
  </sodipodi:namedview>
  <defs
     id="defs2" />
  <g
     inkscape:label="Layer 1"
     inkscape:groupmode="layer"
     id="layer1">
    <g
       style="fill:#000000"
       id="g1156"
       transform="matrix(2.4977965,0,0,2.2717002,7.2790352,-1.542071)">
      <g
         id="SVGRepo_bgCarrier"
         stroke-width="0" />
      <g
         id="SVGRepo_tracerCarrier"
         stroke-linecap="round"
         stroke-linejoin="round" />
      <g
         id="SVGRepo_iconCarrier">
        <title
           id="title1140">facebook</title>
        <path
           d="m 1.188,5.594 h 18.438 c 0.625,0 1.188,0.563 1.188,1.188 V 25.22 c 0,0.625 -0.563,1.188 -1.188,1.188 H 1.188 C 0.563,26.408 0,25.845 0,25.22 V 6.782 C 0,6.157 0.563,5.594 1.188,5.594 Z m 13.593,11.687 h 2.875 l 0.125,-2.75 h -3 V 12.5 c 0,-0.781 0.156,-1.219 1.156,-1.219 h 1.75 L 17.75,8.718 c 0,0 -0.781,-0.125 -1.906,-0.125 -2.75,0 -3.969,1.719 -3.969,3.563 v 2.375 H 9.844 v 2.75 h 2.031 v 7.625 h 2.906 z"
           id="path1142" />
      </g>
    </g>
  </g>
  <style
     type="text/css"
     id="style824">
	.st0{fill:#000000;}
</style>
</svg>
