<?xml version="1.0" encoding="UTF-8" standalone="no"?>
<!-- Created with Inkscape (http://www.inkscape.org/) -->

<svg
   width="256"
   height="256"
   viewBox="0 0 67.733333 67.733335"
   version="1.1"
   id="svg5"
   sodipodi:docname="linkedin_icon.svg"
   inkscape:version="1.1.1 (3bf5ae0, 2021-09-20)"
   xmlns:inkscape="http://www.inkscape.org/namespaces/inkscape"
   xmlns:sodipodi="http://sodipodi.sourceforge.net/DTD/sodipodi-0.dtd"
   xmlns="http://www.w3.org/2000/svg"
   xmlns:svg="http://www.w3.org/2000/svg">
  <sodipodi:namedview
     id="namedview7"
     pagecolor="#505050"
     bordercolor="#eeeeee"
     borderopacity="1"
     inkscape:pageshadow="0"
     inkscape:pageopacity="0"
     inkscape:pagecheckerboard="0"
     inkscape:document-units="mm"
     showgrid="false"
     units="px"
     width="256px"
     showguides="true"
     inkscape:guide-bbox="true"
     inkscape:zoom="2.95"
     inkscape:cx="108.81356"
     inkscape:cy="139.15254"
     inkscape:window-width="1920"
     inkscape:window-height="948"
     inkscape:window-x="0"
     inkscape:window-y="27"
     inkscape:window-maximized="1"
     inkscape:current-layer="layer1">
    <sodipodi:guide
       position="-37.37072,9.3586313"
       orientation="0,-1"
       id="guide838" />
    <sodipodi:guide
       position="82.327575,56.567514"
       orientation="0,-1"
       id="guide840" />
  </sodipodi:namedview>
  <defs
     id="defs2" />
  <g
     inkscape:label="Layer 1"
     inkscape:groupmode="layer"
     id="layer1">
    <g
       style="fill:#000000"
       id="g958"
       transform="matrix(1.7393635,0,0,1.5687361,6.1699048,9.5908088)">
      <path
         d="M 28.778,1.004 H 3.218 c -0.008,0 -0.017,0 -0.027,0 -1.199,0 -2.172,0.964 -2.186,2.159 v 25.672 c 0.014,1.196 0.987,2.161 2.186,2.161 0.01,0 0.019,0 0.029,0 h 25.555 c 0.008,0 0.018,0 0.028,0 1.2,0 2.175,-0.963 2.194,-2.159 V 28.835 3.165 C 30.978,1.968 30.003,1.004 28.802,1.004 c -0.01,0 -0.019,0 -0.029,0 h 0.001 z M 9.9,26.562 H 5.446 V 12.251 H 9.9 Z M 7.674,10.293 c -1.425,0 -2.579,-1.155 -2.579,-2.579 0,-1.424 1.155,-2.579 2.579,-2.579 1.424,0 2.579,1.154 2.579,2.578 v 0 c 0,0.001 0,0.002 0,0.004 0,1.423 -1.154,2.577 -2.577,2.577 -0.001,0 -0.002,0 -0.003,0 v 0 z m 18.882,16.269 h -4.441 v -6.959 c 0,-1.66 -0.034,-3.795 -2.314,-3.795 -2.316,0 -2.669,1.806 -2.669,3.673 v 7.082 H 12.691 V 12.252 h 4.266 v 1.951 h 0.058 c 0.828,-1.395 2.326,-2.315 4.039,-2.315 0.061,0 0.121,10e-4 0.181,0.003 h -0.009 c 4.5,0 5.332,2.962 5.332,6.817 v 7.855 z"
         id="path949" />
    </g>
  </g>
  <style
     type="text/css"
     id="style824">
	.st0{fill:#000000;}
</style>
</svg>
